# xmcd
#
# Track frame offsets: 
#        182
#        15510
#        33652
#        45295
#        59612
#        77172
#        94857
#        115050
#        130090
#        151665
#        164905
#        180320
#        197975
#        213817
#
# Disc length: 2993 seconds
#
# Revision: 14
# Processed by: cddbd v1.5.2PL0 Copyright (c) Steve Scherf et al.
# Submitted via: ExactAudioCopy v0.99pb5
#
DISCID=b20baf0e
DTITLE=Dwight Yoakam - Last Chance For A Thousand Years - Greatest Hit
DTITLE=s From The 90's
DYEAR=1999
DGENRE=Country
TTITLE0=Turn It On, Turn It Up, Turn Me Loose
TTITLE1=You're The One
TTITLE2=It Only Hurts When I Cry
TTITLE3=The Heart That You Own
TTITLE4=Suspicious Minds
TTITLE5=Thinking About Leaving
TTITLE6=A Thousand Miles From Nowhere
TTITLE7=Ain't That Lonely Yet
TTITLE8=Fast As You
TTITLE9=Pocket Of A Clown
TTITLE10=Sorry You Asked?
TTITLE11=Nothing
TTITLE12=I'll Go  Back To Her
TTITLE13=Crazy Little Thing Called Love
EXTD=YEAR: 1999
EXTT0=
EXTT1=
EXTT2=
EXTT3=
EXTT4=
EXTT5=
EXTT6=
EXTT7=
EXTT8=
EXTT9=
EXTT10=
EXTT11=
EXTT12=
EXTT13=
PLAYORDER=
